<?xml version="1.0" encoding="UTF-8"?>
<svg id="Ebene_1" xmlns="http://www.w3.org/2000/svg" version="1.1" viewBox="0 0 105.26 94.02">
  <!-- Generator: Adobe Illustrator 30.6.0, SVG Export Plug-In . SVG Version: 2.1.4 Build 109)  -->
  <defs>
    <style>
      .st0 {
        display: none;
      }
    </style>
  </defs>
  <ellipse cx="52.63" cy="62.5" rx="31.54" ry="31.52"/>
  <path d="M52.63,15.51c10.29.01,20.56,3.17,29.29,9.49,16.77,12.01,21.99,31.25,19.15,52.44,13.57-29.13-7.62-63.67-37.14-70.81C61.05,2.08,57.18.09,52.63,0c-4.55.09-8.42,2.08-11.29,6.63C11.81,13.77-9.37,48.31,4.2,77.44c-2.84-21.18,2.38-40.43,19.15-52.44,8.73-6.32,19-9.48,29.29-9.49Z"/>
  <g id="Ursprüngliche_Grafik" class="st0">
    <path d="M52.63,30.97c-17.42,0-31.54,14.11-31.54,31.52s14.12,31.52,31.54,31.52V30.97Z"/>
    <path d="M52.63,0c-4.55.09-8.42,2.08-11.29,6.63C11.81,13.77-9.37,48.31,4.2,77.44c-2.84-21.18,2.38-40.43,19.15-52.44,8.73-6.32,19-9.48,29.29-9.49V0Z"/>
  </g>
</svg>